<svg xmlns="http://www.w3.org/2000/svg" fill="none" viewBox="0 0 100 100"><mask id="a" width="100" height="93" x="0" y="4" maskUnits="userSpaceOnUse" style="mask-type:alpha"><path fill="#000" d="M90.63 94.027c5.583 4.187 13.958 1.396 6.281-6.28C73.881 65.413 78.766 4 50.153 4S26.425 65.414 3.395 87.746c-8.375 8.375.697 10.468 6.28 6.281C31.31 79.371 29.916 53.55 50.154 53.55S68.996 79.372 90.63 94.027"/></mask><g mask="url(#a)"><g filter="url(#b)"><path fill="#ffe432" d="M-4.242-16.798C-5.94-1.838 6.952 11.91 24.554 13.908c17.6 1.997 33.246-8.51 34.944-23.471S48.304-38.271 30.703-40.27-2.543-31.76-4.242-16.8"/></g><g filter="url(#c)"><path fill="#fc413d" d="M63.621 32.114c4.41 18.987 23.715 30.725 43.12 26.218S138.3 34.78 133.89 15.792c-4.41-18.986-23.715-30.724-43.119-26.217-19.404 4.506-31.56 23.552-27.15 42.539"/></g><g filter="url(#d)"><path fill="#00b95c" d="M-51.843 44.85c5.572 19.595 30.667 29.628 56.052 22.41 25.385-7.219 41.446-28.956 35.873-48.55C34.51-.887 9.415-10.92-15.97-3.7s-41.446 28.956-35.873 48.55"/></g><g filter="url(#e)"><path fill="#00b95c" d="M-51.843 44.85c5.572 19.595 30.667 29.628 56.052 22.41 25.385-7.219 41.446-28.956 35.873-48.55C34.51-.887 9.415-10.92-15.97-3.7s-41.446 28.956-35.873 48.55"/></g><g filter="url(#f)"><path fill="#00b95c" d="M-31.7 61.092C-17.731 75.36 6.327 74.46 22.034 59.081S39.151 19.669 25.182 5.4C11.213-8.866-12.844-7.966-28.552 7.413-44.259 22.79-45.669 46.824-31.7 61.092"/></g><g filter="url(#g)"><path fill="#3186ff" d="M41.384 114.902c4.338 18.676 22.433 30.43 40.417 26.253s29.048-22.703 24.71-41.38c-4.338-18.675-22.433-30.43-40.418-26.252-17.984 4.177-29.047 22.703-24.71 41.379"/></g><g filter="url(#h)"><path fill="#fbbc04" d="M10.72-34.27c-9.083 20.232.854 44.401 22.195 53.981S78.92 20.656 88.003.423c9.083-20.234-.854-44.402-22.196-53.983-21.34-9.58-46.005-.944-55.088 19.29"/></g><g filter="url(#i)"><path fill="#3186ff" d="M-13.611 161.025c-21.99-8.632 15.59-79.653 24.934-103.456s34.745-36.102 56.734-27.47c21.989 8.633 48.052 56.178 38.707 79.98S8.378 169.656-13.611 161.025"/></g><g filter="url(#j)"><path fill="#749bff" d="M119.624 72.628c-5.887 6.87-21.25 3.367-34.313-7.826S66.429 38.965 72.316 32.094s21.25-3.367 34.313 7.826 18.882 25.837 12.995 32.707"/></g><g filter="url(#k)"><path fill="#fc413d" d="M75.679 37.655c24.212 16.378 52.094 17.454 62.275 2.403 10.182-15.051-1.193-40.53-25.405-56.908-24.213-16.379-52.094-17.455-62.276-2.404-10.181 15.052 1.193 40.53 25.406 56.909"/></g><g filter="url(#l)"><path fill="#ffee48" d="M-3.812 11.015C-9.81 25.485-7.85 40.044.564 43.532s20.1-5.414 26.098-19.884c5.999-14.47 4.04-29.029-4.375-32.517-8.416-3.488-20.1 5.414-26.099 19.884"/></g></g><defs><filter id="b" width="82.657" height="73.281" x="-13.7" y="-49.821" color-interpolation-filters="sRGB" filterUnits="userSpaceOnUse"><feFlood flood-opacity="0" result="BackgroundImageFix"/><feBlend in="SourceGraphic" in2="BackgroundImageFix" result="shape"/><feGaussianBlur result="effect1_foregroundBlur_868_38870" stdDeviation="4.654"/></filter><filter id="c" width="162.081" height="160.689" x="17.715" y="-56.391" color-interpolation-filters="sRGB" filterUnits="userSpaceOnUse"><feFlood flood-opacity="0" result="BackgroundImageFix"/><feBlend in="SourceGraphic" in2="BackgroundImageFix" result="shape"/><feGaussianBlur result="effect1_foregroundBlur_868_38870" stdDeviation="22.501"/></filter><filter id="d" width="170.647" height="152.155" x="-91.204" y="-44.297" color-interpolation-filters="sRGB" filterUnits="userSpaceOnUse"><feFlood flood-opacity="0" result="BackgroundImageFix"/><feBlend in="SourceGraphic" in2="BackgroundImageFix" result="shape"/><feGaussianBlur result="effect1_foregroundBlur_868_38870" stdDeviation="19.128"/></filter><filter id="e" width="170.647" height="152.155" x="-91.204" y="-44.297" color-interpolation-filters="sRGB" filterUnits="userSpaceOnUse"><feFlood flood-opacity="0" result="BackgroundImageFix"/><feBlend in="SourceGraphic" in2="BackgroundImageFix" result="shape"/><feGaussianBlur result="effect1_foregroundBlur_868_38870" stdDeviation="19.128"/></filter><filter id="f" width="152.635" height="152.48" x="-79.576" y="-42.993" color-interpolation-filters="sRGB" filterUnits="userSpaceOnUse"><feFlood flood-opacity="0" result="BackgroundImageFix"/><feBlend in="SourceGraphic" in2="BackgroundImageFix" result="shape"/><feGaussianBlur result="effect1_foregroundBlur_868_38870" stdDeviation="19.128"/></filter><filter id="g" width="139.719" height="142.027" x="4.088" y="36.325" color-interpolation-filters="sRGB" filterUnits="userSpaceOnUse"><feFlood flood-opacity="0" result="BackgroundImageFix"/><feBlend in="SourceGraphic" in2="BackgroundImageFix" result="shape"/><feGaussianBlur result="effect1_foregroundBlur_868_38870" stdDeviation="18.177"/></filter><filter id="h" width="149.909" height="146.984" x="-25.593" y="-90.416" color-interpolation-filters="sRGB" filterUnits="userSpaceOnUse"><feFlood flood-opacity="0" result="BackgroundImageFix"/><feBlend in="SourceGraphic" in2="BackgroundImageFix" result="shape"/><feGaussianBlur result="effect1_foregroundBlur_868_38870" stdDeviation="16.474"/></filter><filter id="i" width="187.973" height="193.847" x="-49.833" y="-2.083" color-interpolation-filters="sRGB" filterUnits="userSpaceOnUse"><feFlood flood-opacity="0" result="BackgroundImageFix"/><feBlend in="SourceGraphic" in2="BackgroundImageFix" result="shape"/><feGaussianBlur result="effect1_foregroundBlur_868_38870" stdDeviation="14.712"/></filter><filter id="j" width="104.56" height="100.225" x="43.69" y="2.249" color-interpolation-filters="sRGB" filterUnits="userSpaceOnUse"><feFlood flood-opacity="0" result="BackgroundImageFix"/><feBlend in="SourceGraphic" in2="BackgroundImageFix" result="shape"/><feGaussianBlur result="effect1_foregroundBlur_868_38870" stdDeviation="13.164"/></filter><filter id="k" width="139.618" height="125.029" x="24.305" y="-52.112" color-interpolation-filters="sRGB" filterUnits="userSpaceOnUse"><feFlood flood-opacity="0" result="BackgroundImageFix"/><feBlend in="SourceGraphic" in2="BackgroundImageFix" result="shape"/><feGaussianBlur result="effect1_foregroundBlur_868_38870" stdDeviation="11.119"/></filter><filter id="l" width="92.472" height="108.961" x="-34.811" y="-37.149" color-interpolation-filters="sRGB" filterUnits="userSpaceOnUse"><feFlood flood-opacity="0" result="BackgroundImageFix"/><feBlend in="SourceGraphic" in2="BackgroundImageFix" result="shape"/><feGaussianBlur result="effect1_foregroundBlur_868_38870" stdDeviation="13.761"/></filter></defs></svg>